<svg width="81" height="81" viewBox="0 0 81 81" fill="none" xmlns="http://www.w3.org/2000/svg">
<mask id="mask0_3574_41624" style="mask-type:alpha" maskUnits="userSpaceOnUse" x="9" y="37" width="62" height="32">
<path d="M40.2254 40.1564H35.9806L15.818 37.5034L9.98145 40.1564V51.8295L10.512 68.8086H68.347L71 64.5638V57.6661L68.347 51.2989L67.8164 45.993L63.041 41.2176C52.0046 48.4337 43.2321 43.5168 40.2254 40.1564Z" fill="#D9D9D9"/>
</mask>
<g mask="url(#mask0_3574_41624)">
<path fill-rule="evenodd" clip-rule="evenodd" d="M49.9435 9.46579C44.642 10.2005 39.9665 13.2965 37.1681 17.9255C35.5828 20.5482 34.766 23.5567 34.7562 26.8106C34.7416 31.6379 36.5219 35.9316 39.9319 39.2941C40.4788 39.8333 40.9271 40.3032 40.928 40.3382C40.929 40.3733 40.7502 40.4668 40.531 40.5461C39.9799 40.7454 38.485 41.7363 37.8438 42.3274C37.5512 42.5971 37.0478 43.1727 36.7253 43.6063L36.139 44.3949L31.1931 44.3942C28.144 44.3939 26.0812 44.3475 25.8147 44.2735C24.7222 43.9701 23.9218 42.9234 23.7552 41.58C23.7041 41.1684 23.6061 40.7266 23.5374 40.598C23.2904 40.1366 22.6111 39.6534 22.1025 39.5773C21.8285 39.5362 20.168 39.5197 18.4125 39.5404C14.8241 39.5827 14.7591 39.5969 13.8625 40.5258C13.3011 41.1075 13.0731 41.6801 13.0745 42.5051C13.0766 43.7577 13.3416 44.118 15.7578 46.1527C19.3873 49.2094 18.5336 48.739 25.2069 51.359C28.4601 52.6363 31.2222 53.7237 31.3449 53.7755C31.5123 53.8463 30.872 54.1209 28.7753 54.8777C27.2392 55.432 25.929 55.8856 25.8636 55.8856C25.7981 55.8856 25.5494 55.6198 25.311 55.2951C23.7022 53.1034 20.5442 51.9051 17.8277 52.4556C15.3348 52.9607 13.3964 54.4704 12.3015 56.7595C10.9859 59.5101 11.4835 62.8433 13.5458 65.0939C15.1215 66.8135 16.9872 67.6356 19.2948 67.6275C22.5816 67.6158 25.3927 65.5884 26.5015 62.4299C26.7967 61.5893 26.8213 61.3876 26.8047 59.948C26.7948 59.0862 26.7697 58.2254 26.7491 58.0351C26.7134 57.7085 26.7503 57.6747 27.4078 57.4327C27.7908 57.2915 28.1866 57.173 28.2873 57.1692C28.7111 57.1533 29.0009 59.9521 28.7314 61.4569C28.3975 63.322 28.5406 63.9511 29.4378 64.5617L29.8215 64.8228H40.4941C52.2567 64.8228 51.6667 64.8588 52.2008 64.1088C52.6267 63.5107 52.6856 63.0527 52.4712 62.0037C52.2016 60.6837 52.2886 58.364 52.6507 57.2204C52.9614 56.2388 53.6885 54.8051 54.1542 54.2559L54.4946 53.8544L55.1686 54.5223C55.7495 55.0977 55.8232 55.2181 55.7023 55.3928C55.2716 56.0146 54.8483 56.8421 54.6343 57.4812C53.3844 61.2116 55.0271 65.2609 58.4822 66.9663C60.8485 68.1343 63.2777 68.1268 65.6521 66.9446C66.8633 66.3415 68.3314 64.8733 68.9345 63.6622C71.0785 59.3564 69.1151 54.2963 64.675 52.6847C62.2723 51.8126 59.5771 52.1923 57.3827 53.7124C57.2081 53.8333 57.0877 53.7596 56.5122 53.1787L55.8444 52.5047L56.2459 52.1642C56.8037 51.6913 58.2411 50.9661 59.2103 50.6685C59.7172 50.5128 60.6097 50.3769 61.5828 50.307C63.3061 50.1833 63.9676 49.9688 64.7533 49.279C65.6217 48.5166 66.0628 47.0157 65.7732 45.8085C65.537 44.8241 65.0869 44.2741 63.4269 42.9412C62.5761 42.2579 61.8799 41.6601 61.8799 41.6125C61.8799 41.5651 62.3003 41.2094 62.8142 40.8221C63.3281 40.4349 64.2754 39.5711 64.9194 38.9026C73.0506 30.4604 70.6252 16.4932 60.1103 11.2087C58.7659 10.533 57.2933 10.0162 55.7596 9.68168C54.5098 9.40915 51.2307 9.2874 49.9435 9.46579ZM55.3801 11.6028C61.7101 13.0176 66.3431 17.7431 67.5852 24.0517C67.8587 25.4406 67.8587 28.2968 67.5852 29.6856C66.3873 35.7693 62.0534 40.3808 56.0185 41.9931C54.7393 42.3348 54.5846 42.3499 52.3043 42.3551C50.1882 42.36 49.8029 42.3305 48.8223 42.0886C45.1019 41.1709 42.0323 39.184 39.8449 36.278C38.0537 33.8984 37.0651 31.3623 36.7438 28.3231C36.5916 26.8835 36.6653 25.4916 36.9806 23.8509C37.8775 19.1831 40.993 15.0967 45.2827 12.9614C46.6108 12.3003 48.2555 11.7523 49.5187 11.55C49.9975 11.4734 50.4675 11.3919 50.5633 11.3688C51.0111 11.2612 54.6406 11.4376 55.3801 11.6028ZM56.5305 15.6663C54.4846 16.1114 52.7829 17.6886 52.1695 19.7079C51.9689 20.3684 51.9359 20.7158 51.98 21.7065L52.0333 22.9056L50.1087 24.8204L48.1839 26.7351L47.4882 26.6113C45.3467 26.2305 42.6759 27.5883 41.5998 29.605C40.9209 30.8773 40.7055 32.8254 41.1612 33.5726C41.6183 34.3224 42.6151 34.631 43.3439 34.2485C43.5162 34.1581 43.8662 33.8665 44.1215 33.6006C44.7163 32.9813 45.161 32.7473 45.5559 32.8458C46.0508 32.9693 46.2688 33.2419 46.2688 33.7376C46.2688 34.1254 46.1749 34.2877 45.5813 34.9259C44.5128 36.0745 44.4147 37.0017 45.2814 37.7627C45.7632 38.1859 46.274 38.2986 47.2536 38.1983C49.7268 37.9449 51.6618 36.318 52.3643 33.9013C52.5092 33.4027 52.5499 32.9096 52.5196 32.0218L52.4784 30.8183L54.3772 28.9166L56.2759 27.0149L56.6985 27.1131C58.3455 27.4959 60.3605 26.8873 61.75 25.5876C62.93 24.4838 63.5629 23.0374 63.5629 21.4447C63.5629 20.211 63.1322 19.5442 62.2254 19.3742C61.5478 19.2471 61.1291 19.4284 60.2987 20.2081C59.4222 21.0314 59.0675 21.1318 58.5296 20.7086C58.2899 20.5201 58.2238 20.3672 58.2238 20.0022C58.2238 19.5919 58.3055 19.4509 58.9081 18.8209C59.662 18.0329 59.8993 17.4681 59.7279 16.8703C59.3834 15.6692 58.3338 15.2738 56.5305 15.6663ZM21.8696 42.2034C22.2457 44.2265 23.7109 45.8044 25.622 46.245C25.92 46.3137 28.1163 46.3635 30.9188 46.3653C34.6715 46.3675 35.706 46.3994 35.7041 46.5131C35.6995 46.7678 35.2831 47.5797 35.0514 47.7855C34.5755 48.208 34.0089 48.3412 32.6873 48.3412C31.477 48.3412 31.3848 48.3579 31.1167 48.6262C30.7474 48.9954 30.7457 49.5053 31.1124 49.9306L31.3932 50.2563L32.9405 50.2432C34.2287 50.2324 34.5977 50.188 35.1433 49.9782C36.5404 49.4412 37.3692 48.3232 37.5778 46.6944C37.6457 46.1639 37.7878 45.5469 37.8934 45.3234C37.9991 45.1 38.5041 44.4949 39.0157 43.9789C39.7518 43.2364 40.1515 42.9401 40.931 42.5589C41.473 42.294 42.1551 42.0157 42.447 41.9406C42.9728 41.8055 42.9917 41.811 44.4202 42.5175C46.0036 43.3004 47.4761 43.8167 48.9597 44.1089C50.3035 44.3735 52.8419 44.4582 54.2234 44.2843C55.1577 44.1667 55.3712 44.1689 55.4551 44.2975C55.605 44.5272 55.4656 45.0008 55.1699 45.2662C55.0259 45.3955 50.3381 47.1403 44.638 49.1861L34.3658 52.8728L27.6949 50.2607C24.0259 48.8239 20.7629 47.5152 20.4437 47.3522C19.5964 46.9195 15.1296 43.1307 15.0415 42.77C15.0025 42.6104 15.0192 42.3353 15.0786 42.1587C15.2957 41.5133 15.4054 41.4932 18.708 41.4932H21.7375L21.8696 42.2034ZM61.7482 44.105C62.7431 44.903 63.6368 45.7101 63.7341 45.8982C64.1075 46.6203 63.8444 47.6111 63.16 48.0595C62.9546 48.1941 62.4578 48.2832 61.5585 48.3465C60.8416 48.397 59.9938 48.4965 59.6746 48.5675C54.8948 49.6319 51.4155 53.2132 50.5066 58.0039C50.237 59.4253 50.296 61.6009 50.6356 62.7626C50.6919 62.955 50.1583 62.9658 40.5747 62.9658H30.4545L30.5319 62.5885C30.8945 60.8233 30.8784 58.9638 30.4865 57.3187C30.3672 56.8183 30.2787 56.4043 30.2896 56.3988C30.3005 56.3931 31.6674 55.9045 33.3272 55.3129C34.987 54.7215 37.3374 53.8809 38.5503 53.4449C39.7632 53.0091 44.1212 51.4437 48.2346 49.9663C52.3481 48.489 55.8528 47.2082 56.0229 47.1202C56.4392 46.905 57.023 46.2241 57.244 45.6964C57.3595 45.4205 57.4152 44.9805 57.399 44.4735L57.3736 43.6814L58.5822 43.1822C59.2468 42.9077 59.8241 42.6765 59.8648 42.6685C59.9057 42.6605 60.7531 43.3069 61.7482 44.105ZM21.0146 54.4875C21.3925 54.6186 21.941 54.8799 22.2333 55.068C22.773 55.4152 23.954 56.5412 23.8607 56.6195C23.8326 56.643 22.8434 57.0092 21.6624 57.4331C20.3006 57.922 19.4409 58.2941 19.312 58.4505C18.8374 59.0264 19.2621 59.948 20.0022 59.948C20.2288 59.948 21.3773 59.6029 22.5543 59.1812C23.7313 58.7596 24.7303 58.4505 24.7743 58.4945C24.8183 58.5385 24.8543 59.21 24.8543 59.9866C24.8543 61.5511 24.7171 62.0827 24.0403 63.1399C21.8216 66.6053 16.908 66.8004 14.4379 63.5211C13.6275 62.4454 13.2903 61.4281 13.2933 60.068C13.2968 58.4561 13.8022 57.1409 14.8392 56.0443C15.7443 55.0873 16.7037 54.5461 18.0063 54.2575C18.7089 54.1019 20.2413 54.219 21.0146 54.4875ZM63.3029 54.3194C66.4277 55.0561 68.3823 58.1159 67.7291 61.2481C67.2755 63.4232 65.4131 65.2856 63.238 65.7392C60.1231 66.3887 57.0435 64.4279 56.3133 61.33C56.0923 60.3924 56.0911 59.6243 56.3096 58.6981C56.4875 57.9431 56.9627 56.8899 57.1882 56.7506C57.2641 56.7037 58.2232 57.5714 59.5055 58.8473C61.633 60.9641 61.7039 61.022 62.0764 60.9475C62.5627 60.8502 62.8401 60.5728 62.9374 60.0865C63.0119 59.714 62.954 59.6431 60.8373 57.5156C59.5613 56.2332 58.6936 55.2742 58.7405 55.1983C58.8739 54.9825 59.9287 54.4963 60.6348 54.3251C61.5149 54.1118 62.4142 54.1098 63.3029 54.3194Z" fill="#303030"/>
</g>
<mask id="mask1_3574_41624" style="mask-type:alpha" maskUnits="userSpaceOnUse" x="34" y="12" width="34" height="35">
<circle cx="51" cy="29.1562" r="17" fill="#D9D9D9"/>
</mask>
<g mask="url(#mask1_3574_41624)">
<path fill-rule="evenodd" clip-rule="evenodd" d="M49.1577 13.2354C44.1619 13.9277 39.756 16.8452 37.119 21.2073C35.625 23.6787 34.8554 26.5137 34.8462 29.58C34.8324 34.1289 36.51 38.1751 39.7234 41.3436C40.2388 41.8518 40.6612 42.2946 40.6621 42.3276C40.663 42.3606 40.4945 42.4488 40.2879 42.5235C39.7686 42.7113 38.36 43.645 37.7557 44.2021C37.4799 44.4562 37.0056 44.9986 36.7017 45.4073L36.1492 46.1503L31.4885 46.1497C28.6152 46.1494 26.6714 46.1057 26.4203 46.0359C25.3907 45.75 24.6365 44.7637 24.4795 43.4978C24.4314 43.1099 24.339 42.6936 24.2742 42.5724C24.0415 42.1376 23.4014 41.6823 22.9221 41.6105C22.6639 41.5718 21.0992 41.5563 19.4449 41.5757C16.0634 41.6157 16.0022 41.629 15.1573 42.5043C14.6282 43.0525 14.4134 43.5921 14.4147 44.3695C14.4167 45.5499 14.6664 45.8894 16.9433 47.8068C20.3635 50.6872 19.559 50.2439 25.8475 52.7128C28.9131 53.9165 31.5159 54.9413 31.6315 54.99C31.7893 55.0568 31.186 55.3155 29.2101 56.0287C27.7626 56.551 26.528 56.9785 26.4663 56.9785C26.4046 56.9785 26.1702 56.728 25.9456 56.422C24.4295 54.3566 21.4537 53.2275 18.8938 53.7462C16.5447 54.2222 14.718 55.6449 13.6863 57.802C12.4465 60.3939 12.9154 63.535 14.8588 65.6557C16.3437 67.2762 18.1018 68.0509 20.2763 68.0433C23.3736 68.0322 26.0226 66.1218 27.0674 63.1454C27.3456 62.3533 27.3688 62.1632 27.3531 60.8066C27.3438 59.9945 27.3202 59.1834 27.3007 59.004C27.2672 58.6962 27.3019 58.6644 27.9214 58.4363C28.2824 58.3033 28.6553 58.1917 28.7503 58.1881C29.1496 58.1731 29.4227 60.8104 29.1688 62.2285C28.8541 63.986 28.9889 64.5788 29.8344 65.1543L30.196 65.4003H40.2531C51.3375 65.4003 50.7816 65.4343 51.2848 64.7275C51.6862 64.1639 51.7417 63.7323 51.5397 62.7437C51.2856 61.4999 51.3676 59.314 51.7088 58.2363C52.0015 57.3113 52.6868 55.9603 53.1256 55.4427L53.4464 55.0644L54.0815 55.6938C54.629 56.236 54.6984 56.3495 54.5844 56.5141C54.1785 57.1 53.7797 57.8798 53.578 58.4821C52.4002 61.9974 53.9482 65.8131 57.2041 67.4202C59.4339 68.5208 61.723 68.5138 63.9605 67.3997C65.1018 66.8314 66.4853 65.4479 67.0536 64.3066C69.074 60.2491 67.2238 55.4808 63.0398 53.9621C60.7756 53.1403 58.2358 53.4982 56.168 54.9305C56.0034 55.0445 55.8899 54.9751 55.3477 54.4276L54.7183 53.7925L55.0966 53.4717C55.6223 53.026 56.9768 52.3426 57.8902 52.0622C58.3678 51.9155 59.2088 51.7874 60.1258 51.7216C61.7498 51.605 62.3731 51.4029 63.1135 50.7528C63.9318 50.0344 64.3475 48.62 64.0746 47.4824C63.852 46.5548 63.4278 46.0365 61.8636 44.7804C61.0618 44.1365 60.4058 43.5733 60.4058 43.5284C60.4058 43.4837 60.802 43.1486 61.2863 42.7836C61.7705 42.4187 62.6632 41.6047 63.27 40.9747C70.9324 33.0193 68.6468 19.8576 58.7383 14.8777C57.4714 14.2411 56.0836 13.754 54.6385 13.4388C53.4607 13.182 50.3707 13.0673 49.1577 13.2354ZM54.2808 15.2492C60.2458 16.5823 64.6116 21.0353 65.7821 26.9802C66.0398 28.289 66.0398 30.9805 65.7821 32.2893C64.6533 38.0221 60.5693 42.3677 54.8824 43.8871C53.677 44.2091 53.5312 44.2233 51.3824 44.2282C49.3883 44.2328 49.0252 44.205 48.1011 43.9771C44.5953 43.1122 41.7027 41.24 39.6414 38.5015C37.9535 36.2591 37.0219 33.8693 36.7191 31.0053C36.5757 29.6487 36.6452 28.3371 36.9423 26.791C37.7875 22.3923 40.7233 18.5416 44.7656 16.5294C46.0172 15.9064 47.567 15.3901 48.7574 15.1994C49.2085 15.1272 49.6515 15.0504 49.7418 15.0287C50.1637 14.9273 53.584 15.0934 54.2808 15.2492ZM55.3648 19.0783C53.437 19.4977 51.8333 20.984 51.2554 22.8868C51.0663 23.5093 51.0352 23.8366 51.0768 24.7703L51.127 25.9002L49.3133 27.7046L47.4996 29.5088L46.844 29.3922C44.826 29.0334 42.3092 30.3128 41.2952 32.2132C40.6554 33.4122 40.4524 35.248 40.8818 35.9521C41.3125 36.6587 42.2519 36.9495 42.9386 36.589C43.101 36.5038 43.4308 36.2291 43.6714 35.9785C44.2319 35.3948 44.651 35.1743 45.0231 35.2672C45.4895 35.3836 45.6949 35.6405 45.6949 36.1075C45.6949 36.4731 45.6064 36.626 45.047 37.2273C44.0401 38.3097 43.9477 39.1835 44.7644 39.9006C45.2184 40.2993 45.6998 40.4055 46.6229 40.311C48.9535 40.0723 50.7769 38.5392 51.4389 36.2619C51.5754 35.792 51.6138 35.3274 51.5853 34.4908L51.5464 33.3566L53.3357 31.5645L55.125 29.7725L55.5232 29.8651C57.0752 30.2258 58.974 29.6523 60.2834 28.4276C61.3953 27.3874 61.9918 26.0244 61.9918 24.5235C61.9918 23.361 61.5859 22.7326 60.7314 22.5724C60.0929 22.4526 59.6983 22.6235 58.9158 23.3582C58.0898 24.134 57.7556 24.2286 57.2487 23.8299C57.0228 23.6522 56.9605 23.5082 56.9605 23.1642C56.9605 22.7776 57.0375 22.6447 57.6054 22.051C58.3158 21.3084 58.5394 20.7762 58.3779 20.2129C58.0533 19.081 57.0642 18.7085 55.3648 19.0783ZM55.7743 21.3496C55.2222 22.0909 55.059 22.6142 55.1313 23.4116C55.241 24.6224 56.053 25.5519 57.2314 25.8156C58.0762 26.0047 58.8095 25.8268 59.5751 25.2474L60.1644 24.8013L60.0991 25.2035C59.7746 27.2035 57.5167 28.5339 55.437 27.9503C54.9926 27.8257 54.7196 27.8021 54.5396 27.873C54.3973 27.9291 53.2103 29.0524 51.9019 30.3692C50.1043 32.1782 49.5229 32.8287 49.5227 33.031C49.5226 33.1783 49.6031 33.6313 49.7017 34.0377C49.9055 34.8773 49.8125 35.6465 49.4061 36.4862C48.9576 37.4125 47.8827 38.2175 46.7925 38.4433L46.4135 38.5218L46.781 38.1033C47.3729 37.4291 47.584 36.8347 47.5357 35.9783C47.4397 34.2802 46.0031 33.1575 44.3302 33.4732C43.8382 33.5661 43.612 33.6855 42.7524 34.3064L42.4894 34.4961L42.5699 34.0676C42.7654 33.0252 43.664 31.9215 44.6846 31.4701C45.3983 31.1544 46.3845 31.0965 47.1683 31.3243C47.5187 31.4263 47.909 31.4835 48.0354 31.4514C48.1617 31.4194 49.367 30.2869 50.7138 28.9347L53.1623 26.4763L53.0966 26.0048C53.0604 25.7453 52.9793 25.2887 52.9164 24.9898C52.5217 23.1156 54.0935 21.0512 56.1163 20.7865C56.1635 20.7804 56.0095 21.0337 55.7743 21.3496ZM22.7026 44.0852C23.0571 45.9916 24.4377 47.4786 26.2387 47.8938C26.5195 47.9585 28.5892 48.0055 31.23 48.0071C34.7663 48.0092 35.7412 48.0393 35.7393 48.1464C35.7351 48.3864 35.3426 49.1515 35.1243 49.3454C34.6759 49.7435 34.1419 49.8691 32.8966 49.8691C31.756 49.8691 31.6692 49.8848 31.4165 50.1376C31.0685 50.4855 31.067 50.966 31.4125 51.3669L31.677 51.6738L33.1351 51.6614C34.3491 51.6513 34.6968 51.6094 35.211 51.4117C36.5275 50.9056 37.3084 49.8521 37.5051 48.3173C37.5691 47.8173 37.703 47.2359 37.8025 47.0253C37.902 46.8148 38.3779 46.2446 38.86 45.7583C39.5537 45.0587 39.9304 44.7794 40.6649 44.4203C41.1756 44.1706 41.8184 43.9084 42.0935 43.8376C42.589 43.7103 42.6068 43.7154 43.9529 44.3812C45.445 45.1189 46.8326 45.6054 48.2306 45.8809C49.497 46.1302 51.889 46.21 53.1908 46.0461C54.0713 45.9353 54.2724 45.9374 54.3515 46.0586C54.4928 46.275 54.3614 46.7213 54.0827 46.9714C53.947 47.0933 49.5296 48.7374 44.1582 50.6652L34.4783 54.1394L28.192 51.6779C24.7346 50.324 21.6597 49.0907 21.3589 48.9371C20.5605 48.5294 16.3513 44.959 16.2683 44.6191C16.2315 44.4687 16.2473 44.2095 16.3032 44.0431C16.5078 43.4349 16.6112 43.416 19.7233 43.416H22.5781L22.7026 44.0852ZM60.2817 45.8771C61.2192 46.6292 62.0614 47.3897 62.1531 47.567C62.5049 48.2474 62.257 49.1811 61.6121 49.6036C61.4185 49.7305 60.9504 49.8144 60.103 49.8741C59.4273 49.9217 58.6285 50.0154 58.3277 50.0824C53.8235 51.0854 50.5448 54.4601 49.6884 58.9746C49.4343 60.3141 49.4899 62.3642 49.8099 63.4589C49.8629 63.6402 49.3601 63.6503 40.3292 63.6503H30.7925L30.8655 63.2949C31.2072 61.6314 31.192 59.8792 30.8226 58.3289C30.7103 57.8574 30.6268 57.4673 30.6371 57.462C30.6474 57.4567 31.9355 56.9963 33.4996 56.4388C35.0636 55.8814 37.2785 55.0893 38.4214 54.6785C39.5644 54.2678 43.6711 52.7927 47.5474 51.4005C51.4236 50.0083 54.7263 48.8014 54.8865 48.7185C55.2789 48.5157 55.829 47.8741 56.0373 47.3768C56.1461 47.1168 56.1986 46.7021 56.1833 46.2244L56.1593 45.478L57.2983 45.0076C57.9245 44.7489 58.4686 44.5311 58.507 44.5235C58.5455 44.516 59.344 45.1251 60.2817 45.8771ZM21.897 55.6609C22.2531 55.7845 22.7699 56.0307 23.0454 56.208C23.554 56.5352 24.6669 57.5962 24.5789 57.6701C24.5525 57.6921 23.6203 58.0372 22.5074 58.4368C21.2241 58.8975 20.4139 59.2481 20.2925 59.3954C19.8453 59.9382 20.2455 60.8066 20.9429 60.8066C21.1565 60.8066 22.2388 60.4814 23.3478 60.0841C24.457 59.6867 25.3984 59.3954 25.4398 59.4369C25.4813 59.4783 25.5152 60.1112 25.5152 60.843C25.5152 62.3173 25.3859 62.8182 24.7481 63.8144C22.6574 67.08 18.0272 67.2639 15.6994 64.1737C14.9358 63.16 14.618 62.2014 14.6209 60.9197C14.6242 59.4007 15.1004 58.1614 16.0777 57.128C16.9306 56.2262 17.8347 55.7162 19.0621 55.4443C19.7242 55.2976 21.1682 55.408 21.897 55.6609ZM61.7468 55.5026C64.6913 56.1968 66.5332 59.0801 65.9178 62.0317C65.4903 64.0814 63.7353 65.8364 61.6856 66.2639C58.7503 66.8759 55.8483 65.0281 55.1602 62.1089C54.9519 61.2254 54.9508 60.5016 55.1567 59.6287C55.3244 58.9174 55.7721 57.9249 55.9847 57.7935C56.0562 57.7493 56.96 58.567 58.1683 59.7694C60.1732 61.7641 60.24 61.8186 60.591 61.7484C61.0493 61.6568 61.3107 61.3954 61.4023 60.9371C61.4725 60.5861 61.418 60.5193 59.4233 58.5144C58.2209 57.3061 57.4033 56.4023 57.4474 56.3308C57.5731 56.1274 58.5671 55.6693 59.2326 55.5079C60.0618 55.3069 60.9093 55.305 61.7468 55.5026Z" fill="#EE2326"/>
</g>
</svg>
