<svg width="21" height="21" viewBox="0 0 21 21" fill="none" xmlns="http://www.w3.org/2000/svg">
<g clip-path="url(#clip0_1533_14296)">
<path d="M9.97771 15.7676C8.6392 15.7676 7.55371 16.8694 7.55371 18.2242C7.55371 19.579 8.64328 20.6809 9.97771 20.6809C11.3162 20.6809 12.4017 19.579 12.4017 18.2242C12.4017 16.8694 11.3162 15.7676 9.97771 15.7676ZM9.97771 19.0118C9.55738 19.0118 9.21868 18.6568 9.21868 18.2242C9.21868 17.7876 9.55738 17.4366 9.97771 17.4366C10.3939 17.4366 10.7367 17.7917 10.7367 18.2242C10.7367 18.6568 10.3939 19.0118 9.97771 19.0118Z" fill="white"/>
<path d="M4.20331 15.7676C2.8648 15.7676 1.77931 16.8694 1.77931 18.2242C1.77523 19.575 2.8648 20.6768 4.20331 20.6768C5.54181 20.6768 6.6273 19.575 6.6273 18.2201C6.6273 16.8694 5.53773 15.7676 4.20331 15.7676ZM4.20331 19.0118C3.78298 19.0118 3.44428 18.6568 3.44428 18.2242C3.44428 17.7876 3.78298 17.4366 4.20331 17.4366C4.61955 17.4366 4.96233 17.7917 4.96233 18.2242C4.95825 18.6568 4.61955 19.0118 4.20331 19.0118Z" fill="white"/>
<path d="M19.5922 0.680664H15.7848C15.4257 0.680664 15.1074 0.91327 14.9932 1.25606L11.9897 10.4093H4.27698L2.43246 5.10425H11.1082C11.5694 5.10425 11.9407 4.7329 11.9407 4.27177C11.9407 3.81064 11.5694 3.43928 11.1082 3.43928H1.26127C0.575697 3.43928 0.33901 3.99019 0.473677 4.54518L2.763 11.1357L1.14293 13.7188C0.706282 14.3391 1.13069 14.9961 1.84891 14.9961H12.4916C12.9528 14.9961 13.3241 14.6248 13.3241 14.1636C13.3241 13.7025 12.9528 13.3311 12.4916 13.3311H3.3588L4.14639 12.0743H12.5936C12.9528 12.0743 13.2711 11.8417 13.3853 11.4989L16.3888 2.34563H19.5922C20.0533 2.34563 20.4247 1.97428 20.4247 1.51315C20.4247 1.05202 20.0533 0.680664 19.5922 0.680664Z" fill="white"/>
</g>
<defs>
<clipPath id="clip0_1533_14296">
<rect width="20" height="20" fill="white" transform="translate(0.4375 0.680664)"/>
</clipPath>
</defs>
</svg>
