<svg width="80" height="81" viewBox="0 0 80 81" fill="none" xmlns="http://www.w3.org/2000/svg">
<path fill-rule="evenodd" clip-rule="evenodd" d="M37.375 13.8517C32.9521 14.6091 29.1292 17.0764 26.6478 20.7749C25.4383 22.5778 24.7109 24.2824 24.2211 26.4622C24.0195 27.3591 23.9827 27.8571 23.9845 29.6575C23.9865 31.5464 24.02 31.9466 24.2778 33.1575C25.6744 39.7167 30.8807 49.7336 38.5057 60.5314C39.9251 62.5413 40.0397 62.541 41.5487 60.5232C43.876 57.4113 46.5362 53.4331 48.5538 50.0479C52.4278 43.5477 54.8075 37.9784 55.771 33.1575C56.1257 31.3826 56.1317 28.0366 55.783 26.4842C55.2982 24.3255 54.5404 22.5468 53.3467 20.7652C50.8238 17.0002 46.8404 14.484 42.3306 13.8069C41.2853 13.6499 38.4009 13.676 37.375 13.8517ZM43.4453 15.5865C44.8052 15.9362 45.4605 16.188 46.7812 16.8681C50.7661 18.9202 53.6445 22.9274 54.3897 27.4599C54.6508 29.0486 54.5581 31.4963 54.1658 33.3686C53.2223 37.8719 50.4573 44.0002 46.3653 50.6575C44.5007 53.691 40.2877 59.849 40.0264 59.9226C39.9316 59.9492 39.8028 59.7682 37.7533 56.7278C30.9978 46.7058 26.6379 37.8547 25.6661 32.1897C24.4777 25.2621 28.3592 18.5527 35.0018 16.0525C35.5922 15.8302 37.0808 15.4533 38.0312 15.2854C38.1816 15.2588 39.2152 15.2525 40.3281 15.2712C42.0738 15.3006 42.5017 15.3438 43.4453 15.5865ZM47.1914 57.079C47.0862 57.1962 47 57.4445 47 57.6308C47 58.1284 47.3796 58.3762 48.28 58.4663C49.4372 58.5822 52.1252 59.1497 53.31 59.5284C55.1142 60.105 56.2969 60.8108 56.2969 61.3109C56.2969 62.1988 53.4124 63.3298 49.4609 63.9912C46.2716 64.5252 45.1235 64.5989 40 64.5989C34.8756 64.5989 33.724 64.5248 30.5391 63.9909C26.626 63.3348 23.7031 62.1935 23.7031 61.3216C23.7031 60.5805 25.9457 59.5715 29.0078 58.935C29.7297 58.785 30.5866 58.6272 30.9123 58.5847C31.9094 58.4541 32.2815 57.8695 31.7561 57.2586L31.4965 56.9569L30.2503 57.1431C28.6581 57.3811 26.3033 57.9749 25.1797 58.4218C23.0936 59.2514 22.1719 60.1438 22.1719 61.3338C22.1719 63.5304 26.0363 65.0891 33.5469 65.9222C35.7021 66.1612 41.9037 66.2561 44.3264 66.0872C52.8779 65.4906 57.8281 63.7435 57.8281 61.3216C57.8281 59.4988 55.346 58.1605 50.2176 57.2184C49.5764 57.1006 48.6763 56.9732 48.2173 56.9352C47.4776 56.8741 47.361 56.8904 47.1914 57.079Z" fill="#303030"/>
<circle cx="40" cy="29.1562" r="7.2" stroke="#EE2326" stroke-width="1.6"/>
</svg>
