<svg width="32" height="32" viewBox="0 0 32 32" fill="none" xmlns="http://www.w3.org/2000/svg">
<path d="M20.6301 3.92969H11.3703C7.25885 3.92969 3.92969 7.25885 3.92969 11.3703V20.6301C3.92969 24.7415 7.25885 28.0707 11.3703 28.0707H20.6301C24.7415 28.0707 28.0707 24.7415 28.0707 20.6301V11.3703C28.0707 7.25885 24.7415 3.92969 20.6301 3.92969ZM25.7603 19.7387C25.7603 23.0496 23.0678 25.7421 19.7569 25.7421H12.2617C8.95072 25.7421 6.25828 23.0496 6.25828 19.7387V12.2617C6.25828 8.95072 8.95072 6.25828 12.2617 6.25828H19.7387C23.0496 6.25828 25.7421 8.95072 25.7421 12.2617V19.7387H25.7603Z" fill="white"/>
<path d="M16.3204 9.67969C12.8093 9.67969 9.95312 12.5177 9.95312 16.0287C9.95312 19.5398 12.7911 22.3778 16.3204 22.3778C19.8315 22.3778 22.6694 19.5216 22.6694 16.0287C22.6876 12.5359 19.8315 9.67969 16.3204 9.67969ZM16.3204 19.8673C14.2101 19.8673 12.5 18.1572 12.5 16.0469C12.5 13.9367 14.2101 12.2266 16.3204 12.2266C18.4307 12.2266 20.1407 13.9367 20.1407 16.0469C20.1589 18.1572 18.4307 19.8673 16.3204 19.8673Z" fill="white"/>
<path d="M23.871 9.58785C23.871 10.4793 23.1433 11.207 22.2519 11.207C21.3605 11.207 20.6328 10.4793 20.6328 9.58785C20.6328 8.69644 21.3605 7.96875 22.2519 7.96875C23.1433 7.96875 23.871 8.69644 23.871 9.58785Z" fill="white"/>
</svg>
