<svg width="32" height="32" viewBox="0 0 32 32" fill="none" xmlns="http://www.w3.org/2000/svg">
<path d="M4.7961 12.1068H9.59883V27.5519H4.7961V12.1068ZM7.19746 4.42969C8.7256 4.42969 9.98086 5.68495 9.98086 7.21309C9.98086 8.74123 8.7256 9.99649 7.19746 9.99649C5.65113 9.99649 4.41406 8.75942 4.41406 7.21309C4.41406 5.66675 5.65113 4.42969 7.19746 4.42969Z" fill="white"/>
<path d="M12.6016 12.1086H17.2042V14.2189H17.2769C17.9137 13 19.4782 11.7266 21.825 11.7266C26.6823 11.7266 27.5919 14.9284 27.5919 19.0944V27.5719H22.7892V20.0586C22.7892 18.2757 22.7528 15.9653 20.2968 15.9653C17.8045 15.9653 17.4225 17.9119 17.4225 19.9312V27.5719H12.6016V12.1086Z" fill="white"/>
</svg>
