<svg width="28" height="28" viewBox="0 0 28 28" fill="none" xmlns="http://www.w3.org/2000/svg">
<path fill-rule="evenodd" clip-rule="evenodd" d="M5.93196 9.49247C5.99963 9.65922 5.91931 9.84925 5.75256 9.91692C4.45886 10.4419 3.42446 11.0809 2.71845 11.7853C2.0138 12.4884 1.65168 13.2393 1.65168 14.0031C1.65168 15.4128 2.9048 16.7927 5.17444 17.8392C7.41628 18.8728 10.5363 19.5208 14 19.5208C17.4637 19.5208 20.5837 18.8728 22.8256 17.8392C25.0952 16.7927 26.3483 15.4128 26.3483 14.0031C26.3483 13.8231 26.4942 13.6772 26.6742 13.6772C26.8541 13.6772 27 13.8231 27 14.0031C27 15.8206 25.4159 17.3625 23.0984 18.431C20.7531 19.5123 17.536 20.1725 14 20.1725C10.464 20.1725 7.24687 19.5123 4.90158 18.431C2.58407 17.3625 1 15.8206 1 14.0031C1 13.0175 1.47047 12.1099 2.25816 11.324C3.04449 10.5394 4.16219 9.85898 5.50752 9.31306C5.67427 9.24539 5.8643 9.32572 5.93196 9.49247Z" fill="white" stroke="white" stroke-width="0.4" stroke-linecap="round" stroke-linejoin="round"/>
<path fill-rule="evenodd" clip-rule="evenodd" d="M9.63096 5.18832C8.46716 7.42667 7.73762 10.5415 7.73762 14C7.73762 17.4585 8.46722 20.5733 9.63105 22.8117C10.8032 25.0661 12.3652 26.3483 14.0015 26.3483C14.9331 26.3483 15.8357 25.9367 16.6626 25.1614C16.7939 25.0383 17.0001 25.045 17.1232 25.1762C17.2463 25.3075 17.2396 25.5137 17.1083 25.6368C16.1932 26.4948 15.1385 27 14.0015 27C11.9987 27 10.2658 25.445 9.05285 23.1123C7.8316 20.7635 7.08594 17.5413 7.08594 14C7.08594 10.4587 7.83154 7.23648 9.05276 4.88769C10.2656 2.55495 11.9986 1 14.0015 1C15.9461 1 17.6364 2.46647 18.8408 4.68373C18.9267 4.84186 18.8681 5.03969 18.71 5.12559C18.5519 5.21149 18.3541 5.15293 18.2682 4.9948C17.108 2.85898 15.59 1.65168 14.0015 1.65168C12.365 1.65168 10.8031 2.93393 9.63096 5.18832Z" fill="white" stroke="white" stroke-width="0.4" stroke-linecap="round" stroke-linejoin="round"/>
<path fill-rule="evenodd" clip-rule="evenodd" d="M9.32812 11.9196C9.32812 11.7396 9.47401 11.5938 9.65397 11.5938H11.7342C11.9141 11.5938 12.06 11.7396 12.06 11.9196V13.9998C12.06 14.1798 11.9141 14.3256 11.7342 14.3256H9.65397C9.47401 14.3256 9.32812 14.1798 9.32812 13.9998C9.32812 13.8198 9.47401 13.674 9.65397 13.674H11.4083V12.2454H9.65397C9.47401 12.2454 9.32812 12.0995 9.32812 11.9196Z" fill="white"/>
<path fill-rule="evenodd" clip-rule="evenodd" d="M9.32812 13.9977C9.32812 13.8178 9.47401 13.6719 9.65397 13.6719H11.7342C11.9141 13.6719 12.06 13.8178 12.06 13.9977V16.0779C12.06 16.2579 11.9141 16.4038 11.7342 16.4038H9.65397C9.47401 16.4038 9.32812 16.2579 9.32812 16.0779C9.32812 15.898 9.47401 15.7521 9.65397 15.7521H11.4083V14.3236H9.65397C9.47401 14.3236 9.32812 14.1777 9.32812 13.9977Z" fill="white"/>
<path fill-rule="evenodd" clip-rule="evenodd" d="M12.6328 11.9196C12.6328 11.7396 12.7787 11.5938 12.9587 11.5938H15.0389C15.2188 11.5938 15.3647 11.7396 15.3647 11.9196C15.3647 12.0995 15.2188 12.2454 15.0389 12.2454H13.2845V13.674H15.0391C15.2191 13.674 15.3649 13.8198 15.3649 13.9998C15.3649 14.1798 15.2191 14.3256 15.0391 14.3256H12.9587C12.7787 14.3256 12.6328 14.1798 12.6328 13.9998V11.9196Z" fill="white"/>
<path fill-rule="evenodd" clip-rule="evenodd" d="M12.6328 13.9977C12.6328 13.8178 12.7787 13.6719 12.9587 13.6719H15.0389C15.2188 13.6719 15.3647 13.8178 15.3647 13.9977V16.0779C15.3647 16.2579 15.2188 16.4038 15.0389 16.4038H12.9587C12.7787 16.4038 12.6328 16.2579 12.6328 16.0779V13.9977ZM13.2845 14.3236V15.7521H14.713V14.3236H13.2845Z" fill="white"/>
<path fill-rule="evenodd" clip-rule="evenodd" d="M15.9453 11.9196C15.9453 11.7396 16.0912 11.5938 16.2712 11.5938H18.3514C18.5313 11.5938 18.6772 11.7396 18.6772 11.9196V16.08C18.6772 16.26 18.5313 16.4059 18.3514 16.4059H16.2712C16.0912 16.4059 15.9453 16.26 15.9453 16.08V11.9196ZM16.597 12.2454V15.7542H18.0255V12.2454H16.597Z" fill="white"/>
<path fill-rule="evenodd" clip-rule="evenodd" d="M20.3779 12.2454C20.1796 12.2454 20.0189 12.4062 20.0189 12.6044C20.0189 12.8027 20.1796 12.9635 20.3779 12.9635C20.5762 12.9635 20.7369 12.8027 20.7369 12.6044C20.7369 12.4062 20.5762 12.2454 20.3779 12.2454ZM19.3672 12.6044C19.3672 12.0463 19.8197 11.5938 20.3779 11.5938C20.9361 11.5938 21.3886 12.0463 21.3886 12.6044C21.3886 13.1626 20.9361 13.6151 20.3779 13.6151C19.8197 13.6151 19.3672 13.1626 19.3672 12.6044Z" fill="white"/>
<path fill-rule="evenodd" clip-rule="evenodd" d="M3.66657 8.92995C3.72562 8.75995 3.91129 8.67002 4.08129 8.72907L5.73688 9.30417C5.81851 9.33253 5.88553 9.39216 5.92321 9.46993C5.96088 9.5477 5.96611 9.63726 5.93775 9.71889L5.36265 11.3745C5.3036 11.5445 5.11792 11.6344 4.94793 11.5754C4.77794 11.5163 4.688 11.3306 4.74705 11.1606L5.21524 9.81285L3.86745 9.34466C3.69745 9.28561 3.60752 9.09994 3.66657 8.92995Z" fill="white" stroke="white" stroke-width="0.3" stroke-linecap="round" stroke-linejoin="round"/>
<path fill-rule="evenodd" clip-rule="evenodd" d="M19.0281 2.81329C19.2033 2.85419 19.3122 3.02941 19.2713 3.20466L18.8731 4.91105C18.8534 4.99521 18.8011 5.06811 18.7277 5.11373C18.6543 5.15935 18.5658 5.17395 18.4817 5.1543L16.7753 4.75604C16.6 4.71514 16.4911 4.53992 16.532 4.36467C16.5729 4.18942 16.7482 4.08052 16.9234 4.12142L18.3125 4.44562L18.6367 3.05654C18.6776 2.88129 18.8528 2.77239 19.0281 2.81329Z" fill="white" stroke="white" stroke-width="0.3" stroke-linecap="round" stroke-linejoin="round"/>
</svg>
