<svg width="32" height="32" viewBox="0 0 32 32" fill="none" xmlns="http://www.w3.org/2000/svg">
<path d="M20.0609 15.9968L12.6016 20.2593V11.7344L20.0609 15.9968Z" fill="white" stroke="white" stroke-width="1.5" stroke-linecap="round" stroke-linejoin="round"/>
<path d="M2.66406 16.9406V15.0539C2.66406 11.1939 2.66406 9.26325 3.87073 8.02192C5.07873 6.77925 6.98006 6.72592 10.7814 6.61792C12.5814 6.56725 14.4214 6.53125 15.9974 6.53125C17.5721 6.53125 19.4121 6.56725 21.2134 6.61792C25.0147 6.72592 26.9161 6.77925 28.1227 8.02192C29.3307 9.26325 29.3307 11.1952 29.3307 15.0539V16.9406C29.3307 20.8019 29.3307 22.7313 28.1241 23.9739C26.9161 25.2152 25.0161 25.2699 21.2134 25.3766C19.4134 25.4286 17.5734 25.4646 15.9974 25.4646C14.2584 25.4594 12.5196 25.43 10.7814 25.3766C6.98006 25.2699 5.07873 25.2166 3.87073 23.9739C2.66406 22.7313 2.66406 20.8006 2.66406 16.9419V16.9406Z" stroke="white" stroke-width="2.8"/>
</svg>
